HIERARCHY
ROOT Hips
{
	OFFSET 0.000000 0.000000 0.000000
	CHANNELS 6 Xposition Yposition Zposition Xrotation Yrotation Zrotation
	JOINT LeftUpLeg_virtual
	{
		OFFSET 0.000000 0.000000 0.000000
		CHANNELS 3 Xrotation Yrotation Zrotation
		JOINT LeftUpLeg
		{
			OFFSET 15.427100 -6.655098 0.678600
			CHANNELS 3 Xrotation Yrotation Zrotation
			JOINT LeftLeg
			{
				OFFSET 4.081073 -39.591068 13.024000
				CHANNELS 3 Xrotation Yrotation Zrotation
				JOINT LeftFoot
				{
					OFFSET -4.081074 -37.707932 -15.979700
					CHANNELS 3 Xrotation Yrotation Zrotation
					JOINT LeftToeBase
					{
						OFFSET 5.346399 -15.068900 20.645000
						CHANNELS 3 Xrotation Yrotation Zrotation
						JOINT LeftToe_End
						{
							OFFSET 2.754700 0.931300 11.300900
							CHANNELS 3 Xrotation Yrotation Zrotation
							End Site
							{
								OFFSET 0 0 0
							}
						}
					}
				}
			}
		}
	}
	JOINT RightUpLeg_virtual
	{
		OFFSET 0.000000 0.000000 0.000000
		CHANNELS 3 Xrotation Yrotation Zrotation
		JOINT RightUpLeg
		{
			OFFSET -15.569500 -6.655098 0.678600
			CHANNELS 3 Xrotation Yrotation Zrotation
			JOINT RightLeg
			{
				OFFSET -4.081825 -39.591045 13.023800
				CHANNELS 3 Xrotation Yrotation Zrotation
				JOINT RightFoot
				{
					OFFSET 4.081824 -37.707954 -15.979600
					CHANNELS 3 Xrotation Yrotation Zrotation
					JOINT RightToeBase
					{
						OFFSET -5.346400 -15.068900 20.645000
						CHANNELS 3 Xrotation Yrotation Zrotation
						JOINT RightToe_End
						{
							OFFSET -2.754700 0.931300 11.300900
							CHANNELS 3 Xrotation Yrotation Zrotation
							End Site
							{
								OFFSET 0 0 0
							}
						}
					}
				}
			}
		}
	}
	JOINT Spine_virtual
	{
		OFFSET 0.000000 0.000000 0.000000
		CHANNELS 3 Xrotation Yrotation Zrotation
		JOINT Spine
		{
			OFFSET -0.279200 12.230698 -2.892100
			CHANNELS 3 Xrotation Yrotation Zrotation
			JOINT Spine1
			{
				OFFSET -0.232667 10.192268 -1.242267
				CHANNELS 3 Xrotation Yrotation Zrotation
				JOINT Spine1_split
				{
					OFFSET -0.232667 10.192268 -1.242267
					CHANNELS 3 Xrotation Yrotation Zrotation
					JOINT Spine2
					{
						OFFSET -0.232667 10.192268 -1.242267
						CHANNELS 3 Xrotation Yrotation Zrotation
						JOINT Neck_virtual
						{
							OFFSET 0.000000 0.000000 0.000000
							CHANNELS 3 Xrotation Yrotation Zrotation
							JOINT Neck
							{
								OFFSET -0.418800 17.814194 8.416900
								CHANNELS 3 Xrotation Yrotation Zrotation
								JOINT Head
								{
									OFFSET 0.000000 7.031097 3.806800
									CHANNELS 3 Xrotation Yrotation Zrotation
									JOINT HeadTop_End
									{
										OFFSET 0.000000 24.646606 12.978600
										CHANNELS 3 Xrotation Yrotation Zrotation
										End Site
										{
											OFFSET 0 0 0
										}
									}
								}
							}
						}
						JOINT LeftShoulder_virtual
						{
							OFFSET 0.000000 0.000000 0.000000
							CHANNELS 3 Xrotation Yrotation Zrotation
							JOINT LeftShoulder
							{
								OFFSET 8.476499 7.247704 -3.868750
								CHANNELS 3 Xrotation Yrotation Zrotation
								JOINT LeftShoulder_split
								{
									OFFSET 8.476499 7.247704 -3.868750
									CHANNELS 3 Xrotation Yrotation Zrotation
									JOINT LeftArm
									{
										OFFSET 9.308998 -2.777710 0.208600
										CHANNELS 3 Xrotation Yrotation Zrotation
										JOINT LeftForeArm
										{
											OFFSET 29.972298 0.000000 0.000000
											CHANNELS 3 Xrotation Yrotation Zrotation
											JOINT LeftHand
											{
												OFFSET 26.026505 0.000000 0.000000
												CHANNELS 3 Xrotation Yrotation Zrotation
												End Site
												{
													OFFSET 0 0 0
												}
											}
										}
									}
								}
							}
						}
						JOINT RightShoulder_virtual
						{
							OFFSET 0.000000 0.000000 0.000000
							CHANNELS 3 Xrotation Yrotation Zrotation
							JOINT RightShoulder
							{
								OFFSET -7.570500 7.247704 -3.868750
								CHANNELS 3 Xrotation Yrotation Zrotation
								JOINT RightShoulder_split
								{
									OFFSET -7.570500 7.247704 -3.868750
									CHANNELS 3 Xrotation Yrotation Zrotation
									JOINT RightArm
									{
										OFFSET -9.308998 -2.777710 0.208500
										CHANNELS 3 Xrotation Yrotation Zrotation
										JOINT RightForeArm
										{
											OFFSET -29.972300 0.000000 0.000000
											CHANNELS 3 Xrotation Yrotation Zrotation
											JOINT RightHand
											{
												OFFSET -26.026505 0.000000 0.000000
												CHANNELS 3 Xrotation Yrotation Zrotation
												End Site
												{
													OFFSET 0 0 0
												}
											}
										}
									}
								}
							}
						}
					}
				}
			}
		}
	}
}
MOTION
Frames: 11
Frame Time: 0.03333333
5.650508 90.290039 -6.202223 0.000000 0.000000 0.000000 2.696182 2.160915 1.605931 -12.685883 6.943690 9.465870 23.706639 0.030526 1.876581 -12.111344 5.812311 -16.394611 -0.210061 -4.881540 0.307665 0.000000 0.000000 0.000000 2.849775 2.309758 1.648163 -13.031483 0.980278 -4.701994 26.253348 5.239527 -0.704463 -17.831438 -6.497094 10.796293 1.721008 3.766120 -5.620324 0.000000 0.000000 0.000000 2.585148 4.569000 1.108229 -0.934903 -3.738351 0.180842 -0.742003 -0.315149 0.639839 0.145211 -0.195493 0.010059 0.000000 0.000000 0.000000 -0.039704 1.765993 0.732155 1.982268 4.185302 1.103132 -9.240007 -21.782805 -5.028387 0.000000 0.000000 0.000000 -1.123203 0.344608 0.330875 -0.897413 -11.123761 -9.409657 -2.201107 1.177890 -2.468188 22.541158 -21.317994 -67.961810 -0.882413 -21.689901 -0.496234 0.000000 0.000000 0.000000 -0.395647 0.619415 0.932452 -2.245360 0.678196 11.785856 -6.976150 -0.747493 0.106528 10.256688 28.960009 66.165832 -6.711471 11.945244 3.235423 0.000000 0.000000 0.000000 
5.735884 90.391617 -6.203699 0.000000 0.000000 0.000000 2.637231 2.187624 1.592066 -12.601078 6.461255 9.362325 23.371640 0.088200 1.879573 -12.403428 5.925154 -15.919591 0.113737 -4.874722 0.274050 0.000000 0.000000 0.000000 2.772813 2.059149 1.615443 -12.701421 0.979364 -4.628400 26.044273 5.139446 -0.850496 -17.522420 -6.479288 10.720014 0.744324 3.858357 -5.516194 0.000000 0.000000 0.000000 2.614269 4.436151 1.042117 -1.045790 -3.677571 0.198641 -0.763469 -0.265571 0.638213 0.135847 -0.131942 0.020445 0.000000 0.000000 0.000000 -0.022450 1.807039 0.731402 1.947458 4.181005 1.243599 -9.644309 -21.496926 -5.285554 0.000000 0.000000 0.000000 -1.071098 0.393443 0.362065 -0.886372 -11.128666 -9.504402 -2.268809 1.059813 -2.541455 22.431198 -21.372333 -67.948962 -0.951983 -21.577601 -0.582525 0.000000 0.000000 0.000000 -0.391637 0.662204 0.918356 -2.289445 0.862399 11.795201 -6.500711 -0.639332 0.065065 10.175187 29.000765 66.057273 -6.683656 11.893087 3.268408 0.000000 0.000000 0.000000 
5.828764 90.486450 -6.185080 0.000000 0.000000 0.000000 2.483467 2.006336 1.510919 -12.562949 6.143827 9.272827 23.142745 0.163795 1.952833 -12.659505 6.076363 -15.709287 0.779096 -4.872214 0.259337 0.000000 0.000000 0.000000 2.710132 1.657451 1.507835 -12.336795 0.837067 -4.499180 25.897564 4.976978 -1.027608 -17.553532 -6.108187 10.783565 0.293736 4.011029 -5.798437 0.000000 0.000000 0.000000 2.556672 4.205248 0.864481 -1.051224 -3.482024 0.224100 -0.744053 -0.180962 0.642886 0.134819 -0.121888 0.004875 0.000000 0.000000 0.000000 0.065248 1.885978 0.730811 1.973016 4.149199 1.474706 -9.949398 -21.008250 -5.597208 0.000000 0.000000 0.000000 -1.014222 0.475112 0.387983 -0.915051 -11.147542 -9.585950 -2.232206 1.054680 -2.536677 21.949388 -21.339464 -68.102396 -0.986914 -21.470850 -0.580605 0.000000 0.000000 0.000000 -0.355729 0.735149 0.909520 -2.318583 0.984958 11.815484 -6.061464 -0.608207 0.058526 10.281785 29.044553 65.764975 -6.578043 11.862313 3.157066 0.000000 0.000000 0.000000 
5.922535 90.468048 -6.219809 0.000000 0.000000 0.000000 2.303412 1.613181 1.405759 -12.532685 6.044991 9.115774 23.255071 0.220160 2.130637 -12.763140 6.232230 -15.786469 1.016661 -4.900544 0.400954 0.000000 0.000000 0.000000 2.703027 1.192667 1.386349 -12.184010 0.552179 -4.415522 25.856038 4.742944 -1.162965 -17.902867 -5.577401 10.884537 0.749419 4.181637 -6.455733 0.000000 0.000000 0.000000 2.448602 3.929050 0.706937 -0.922312 -3.187721 0.221010 -0.656773 -0.069182 0.648240 0.142703 -0.170141 -0.013603 0.000000 0.000000 0.000000 0.223920 1.990261 0.725690 2.041117 4.093977 1.776989 -10.108743 -20.305389 -5.885354 0.000000 0.000000 0.000000 -0.958252 0.584777 0.400023 -0.986337 -11.189220 -9.652195 -2.141797 1.068097 -2.499668 21.193778 -21.275877 -68.286244 -1.018095 -21.420098 -0.529735 0.000000 0.000000 0.000000 -0.282291 0.826280 0.900298 -2.314966 1.071821 11.822809 -5.695702 -0.604880 0.076766 10.498768 29.139766 65.398091 -6.428190 11.884141 2.936456 0.000000 0.000000 0.000000 
6.062554 90.381386 -6.299498 0.000000 0.000000 0.000000 2.188386 1.077922 1.300030 -12.546202 6.127562 8.854677 23.780316 0.335061 2.418720 -12.849350 6.468610 -15.916964 0.591287 -4.962512 0.670639 0.000000 0.000000 0.000000 2.788277 0.689121 1.275648 -12.380161 0.170200 -4.408891 25.819918 4.512950 -1.170617 -18.183613 -5.140908 11.164223 1.553097 4.327098 -7.382832 0.000000 0.000000 0.000000 2.371245 3.668525 0.621098 -0.662412 -2.854329 0.169294 -0.505973 0.050249 0.648217 0.125239 -0.251579 -0.012078 0.000000 0.000000 0.000000 0.448668 2.104392 0.707310 2.076424 4.016839 2.119142 -10.081396 -19.389416 -6.065030 0.000000 0.000000 0.000000 -0.887230 0.707790 0.399484 -1.090840 -11.256327 -9.718081 -1.987481 1.043515 -2.574649 20.279214 -21.256957 -68.372659 -1.050984 -21.455663 -0.440303 0.000000 0.000000 0.000000 -0.178214 0.923349 0.890965 -2.289766 1.199347 11.789209 -5.416934 -0.614794 0.065179 10.702464 29.334071 65.061179 -6.285392 11.973674 2.654146 0.000000 0.000000 0.000000 
6.189576 90.291527 -6.418417 0.000000 0.000000 0.000000 2.220324 0.489331 1.188633 -12.675463 6.317966 8.516146 24.562579 0.652344 2.790546 -13.085177 6.881639 -15.821206 0.023124 -5.047574 0.846465 0.000000 0.000000 0.000000 3.028012 0.278922 1.149386 -12.977752 -0.184764 -4.380530 25.667895 4.278591 -1.066120 -18.022129 -5.011776 11.707257 2.299872 4.410249 -8.403209 0.000000 0.000000 0.000000 2.431571 3.418184 0.537268 -0.293520 -2.541475 0.103714 -0.302442 0.166220 0.631828 0.099534 -0.334942 -0.001942 0.000000 0.000000 0.000000 0.723298 2.213547 0.667603 2.035390 3.938043 2.467339 -9.836961 -18.280931 -6.093598 0.000000 0.000000 0.000000 -0.795686 0.824341 0.380803 -1.219262 -11.353642 -9.802963 -1.781577 0.973665 -2.693337 19.316779 -21.290495 -68.279953 -1.120332 -21.521771 -0.336195 0.000000 0.000000 0.000000 -0.043768 1.012021 0.870178 -2.267648 1.439113 11.712772 -5.172075 -0.526552 0.008154 10.808309 29.672210 64.810354 -6.183851 12.148624 2.374481 0.000000 0.000000 0.000000 
6.273565 90.283310 -6.681276 0.000000 0.000000 0.000000 2.454299 -0.103612 0.956907 -13.041031 6.343108 8.289995 25.409340 1.114469 3.214132 -13.327826 7.494107 -15.737989 -0.129634 -5.126039 0.763833 0.000000 0.000000 0.000000 3.417434 -0.045402 0.877163 -13.926804 -0.411081 -4.162131 25.344165 3.989571 -0.901776 -17.191461 -5.267949 12.357156 2.685316 4.424175 -9.250814 0.000000 0.000000 0.000000 2.749670 3.118173 0.337482 0.118484 -2.283489 0.080109 -0.079859 0.256097 0.597853 0.089374 -0.360829 0.011510 0.000000 0.000000 0.000000 1.020371 2.297882 0.594644 1.908781 3.867341 2.794234 -9.351889 -17.045719 -5.942783 0.000000 0.000000 0.000000 -0.663565 0.911773 0.335217 -1.350837 -11.470195 -9.940201 -1.577828 0.886511 -2.783220 18.287722 -21.365631 -67.989855 -1.235392 -21.516119 -0.226782 0.000000 0.000000 0.000000 0.123916 1.080250 0.827575 -2.262842 1.804294 11.622030 -5.006843 -0.438650 -0.103312 10.831361 30.140761 64.630071 -6.132372 12.369423 2.141216 0.000000 0.000000 0.000000 
6.287510 90.393265 -7.118040 0.000000 0.000000 0.000000 2.904981 -0.562301 0.510514 -13.692202 5.944411 8.339371 26.133948 1.574333 3.590796 -13.568213 8.215876 -15.894140 0.041466 -5.195549 0.465504 0.000000 0.000000 0.000000 3.904338 -0.440380 0.385686 -15.110948 -0.416924 -3.589964 24.849577 3.648503 -0.800236 -15.963052 -5.865423 12.963656 2.833303 4.352685 -9.774462 0.000000 0.000000 0.000000 3.358150 2.612506 -0.072583 0.517478 -2.089189 0.137135 0.127127 0.296593 0.530664 0.099950 -0.311083 0.035705 0.000000 0.000000 0.000000 1.299345 2.340553 0.484900 1.704573 3.816593 3.085990 -8.616491 -15.743711 -5.612390 0.000000 0.000000 0.000000 -0.478547 0.949766 0.245256 -1.459970 -11.600077 -10.156665 -1.484394 0.883638 -2.850147 17.164817 -21.326060 -67.530640 -1.442587 -21.431013 -0.141069 0.000000 0.000000 0.000000 0.335312 1.121683 0.749666 -2.295840 2.289212 11.515499 -4.853309 -0.391461 -0.196096 10.808282 30.729171 64.412386 -6.126524 12.686709 1.998625 0.000000 0.000000 0.000000 
6.213476 90.467453 -7.610525 0.000000 0.000000 0.000000 3.531326 -1.031500 -0.200831 -14.598880 5.061864 8.787037 26.914140 1.891475 3.839447 -13.812615 8.921936 -16.439565 0.073156 -5.274007 0.074936 0.000000 0.000000 0.000000 4.394661 -1.133536 -0.324875 -16.582757 -0.215974 -2.669738 24.590298 3.365133 -0.801933 -14.653384 -6.525509 13.420631 3.061114 4.232084 -10.041403 0.000000 0.000000 0.000000 4.164759 1.738294 -0.696490 0.899018 -1.931920 0.277167 0.298167 0.285912 0.424024 0.124795 -0.232367 0.060790 0.000000 0.000000 0.000000 1.530338 2.332163 0.346414 1.481864 3.794089 3.356485 -7.705177 -14.383012 -5.138896 0.000000 0.000000 0.000000 -0.243321 0.929019 0.094428 -1.520126 -11.721473 -10.440576 -1.579771 0.981993 -2.913536 16.009682 -21.061013 -66.939044 -1.782918 -21.484457 -0.127605 0.000000 0.000000 0.000000 0.587810 1.125929 0.626587 -2.358250 2.856710 11.414477 -4.708142 -0.373378 -0.217939 10.806837 31.405264 64.007916 -6.136620 13.207956 1.983245 0.000000 0.000000 0.000000 
6.036406 90.291084 -8.106588 0.000000 0.000000 0.000000 4.218479 -1.702522 -1.108545 -15.603140 3.806420 9.598319 28.181253 2.057989 3.938019 -14.362812 9.659386 -17.211015 -0.255691 -5.371289 -0.369350 0.000000 0.000000 0.000000 4.775756 -2.335844 -1.160636 -18.473187 0.107044 -1.620482 25.042904 3.367720 -0.821532 -13.406975 -6.835359 14.021981 3.259844 4.160748 -10.341910 0.000000 0.000000 0.000000 4.996381 0.462643 -1.472374 1.327390 -1.792160 0.423025 0.417503 0.226854 0.273652 0.140328 -0.150458 0.056531 0.000000 0.000000 0.000000 1.705163 2.281594 0.184455 1.332387 3.810289 3.629382 -6.724179 -12.894818 -4.613613 0.000000 0.000000 0.000000 0.009672 0.858876 -0.106090 -1.517231 -11.802014 -10.739300 -1.768549 1.037437 -2.927776 14.947596 -20.490252 -66.270156 -2.235823 -22.141361 -0.193674 0.000000 0.000000 0.000000 0.858800 1.087420 0.462325 -2.417984 3.429176 11.315232 -4.587252 -0.354099 -0.231919 10.847282 32.121830 63.353406 -6.143862 14.036684 2.114734 0.000000 0.000000 0.000000 
5.729922 89.634094 -8.531363 0.000000 0.000000 0.000000 4.809168 -2.784846 -2.048958 -16.568345 2.380416 10.703108 30.406431 2.162139 3.850673 -15.655290 10.536295 -17.848589 -0.909772 -5.477275 -0.898730 0.000000 0.000000 0.000000 5.015636 -4.030363 -1.991512 -20.974835 0.490389 -0.813829 26.642848 3.922167 -0.790629 -12.232081 -6.422694 15.551053 2.846493 4.289975 -11.098581 0.000000 0.000000 0.000000 5.618613 -1.141603 -2.307104 1.889284 -1.650593 0.479406 0.516296 0.148189 0.099681 0.159331 -0.102407 0.041630 0.000000 0.000000 0.000000 1.832163 2.207159 0.023784 1.313768 3.875216 3.916717 -5.765737 -11.247651 -4.147289 0.000000 0.000000 0.000000 0.240458 0.764666 -0.329259 -1.459415 -11.845114 -10.980435 -1.850788 0.962337 -2.843645 14.109007 -19.655261 -65.568477 -2.745450 -23.816380 -0.326940 0.000000 0.000000 0.000000 1.133581 1.022198 0.278841 -2.465076 3.948733 11.205864 -4.504057 -0.317181 -0.207546 10.866486 32.748937 62.446309 -6.155491 15.312818 2.428608 0.000000 0.000000 0.000000 
